:SAMPLES-PER-SECOND 30
:FULLY-SPECIFIED
:DEGREES
169
root  47.8996 40.6192 2.46674 71.4295 89.1288 72.4772
RightUpLeg  -1.40621 -8.30038 -6.51638
RightLeg  5.30743 2.16423 3.2031
RightFoot  -0.765988 0.0209783 -0.256243
RightToes  -2.9104e-010 0 -3.6325e-017
Spine  3.36932 2.95411 6.69416
Spine1  15.3747 5.69027 -7.17259
HEad  -21.2709 -2.58389 -2.42934
LeftShoulder1  9.51808 -14.8412 -45.2222
LeftArm  -10.1506 13.1326 -28.2925
LeftForeArm  27.5126 -26.5633 -4.2349
LeftHand  -0.244104 0.0205437 5.32207
RightShoulder  7.03621 12.3631 38.2832
RightArm  8.26144 29.7806 33.0175
RightForeArm  -31.7597 50.0699 15.4188
RightHand  -2.79789 7.72661 -24.7099
LeftUpLeg  1.47171 3.60167 1.2026
LeftLeg  1.77213 8.3143 -3.10011
LeftFoot  -0.888797 -0.12576 1.4337
LeftToes  1.09107e-011 -5.80176e-011 5.60941e-012
170
root  47.9027 40.6232 2.40937 90.385 89.0845 91.3734
RightUpLeg  -1.40806 -8.41449 -6.71157
RightLeg  5.25362 1.97526 3.18962
RightFoot  -0.656693 0.0193039 -0.245857
RightToes  -2.9104e-010 0 -3.6325e-017
Spine  2.79786 2.96014 6.87657
Spine1  15.8432 5.71765 -7.2214
HEad  -21.8046 -2.6167 -2.91378
LeftShoulder1  9.49046 -14.807 -45.1731
LeftArm  -9.29972 13.0344 -28.5581
LeftForeArm  26.4265 -24.8126 -3.91593
LeftHand  -0.244104 0.0205437 5.32207
RightShoulder  7.04544 12.3425 38.3945
RightArm  6.37087 27.902 32.6239
RightForeArm  -28.125 52.8231 16.8151
RightHand  -2.77281 7.61821 -24.6912
LeftUpLeg  1.49139 3.47762 0.983692
LeftLeg  1.5367 8.25391 -3.145
LeftFoot  -0.748243 -0.14889 1.65497
LeftToes  1.09107e-011 -5.80176e-011 5.60941e-012
171
root  47.9165 40.6282 2.33702 106.96 89.0032 107.979
RightUpLeg  -1.24053 -8.58188 -6.92532
RightLeg  5.1233 1.8957 3.23892
RightFoot  -0.492085 0.0225782 -0.314439
RightToes  -2.9104e-010 0 -3.6325e-017
Spine  2.46171 2.92502 6.93379
Spine1  16.0119 5.63991 -7.11913
HEad  -22.1275 -2.33719 -3.40825
LeftShoulder1  9.4526 -14.7184 -45.2135
LeftArm  -8.58328 13.2304 -28.7227
LeftForeArm  25.6603 -23.1456 -3.65015
LeftHand  -0.244104 0.0205437 5.32207
RightShoulder  7.10795 12.3649 38.7121
RightArm  3.88496 25.1618 32.1349
RightForeArm  -22.3444 56.3673 18.866
RightHand  -2.58166 6.94129 -24.2619
LeftUpLeg  1.58663 3.38563 0.795353
LeftLeg  1.37013 8.19191 -3.18287
LeftFoot  -0.637648 -0.178101 1.94246
LeftToes  1.09107e-011 -5.80176e-011 5.60941e-012
172
root  47.8928 40.6304 2.24472 114.191 88.9762 115.297
RightUpLeg  -1.11337 -8.70296 -7.09531
RightLeg  5.01331 1.99115 3.28856
RightFoot  -0.220967 0.0240245 -0.356859
RightToes  -2.9104e-010 0 -3.6325e-017
Spine  2.5547 2.87182 7.04891
Spine1  15.7766 5.53967 -7.03741
HEad  -22.1847 -1.806 -3.78525
LeftShoulder1  9.43924 -14.6454 -45.336
LeftArm  -8.32504 13.762 -28.8301
LeftForeArm  25.2627 -21.8666 -3.59659
LeftHand  -0.244104 0.0205437 5.32207
RightShoulder  7.13696 12.3178 39.0153
RightArm  1.44239 21.7964 31.7945
RightForeArm  -14.8811 60.083 21.4194
RightHand  -2.37977 6.19474 -23.8226
LeftUpLeg  1.57365 3.27051 0.606717
LeftLeg  1.43654 8.33067 -3.12478
LeftFoot  -0.553913 -0.211741 2.27813
LeftToes  1.09107e-011 -5.80176e-011 5.60941e-012
173
root  47.814 40.6269 2.13748 111.7 89.0277 112.904
RightUpLeg  -1.20539 -8.77325 -7.24333
RightLeg  5.07892 2.14629 3.30653
RightFoot  0.0445217 0.013264 -0.212037
RightToes  -2.9104e-010 0 -3.6325e-017
Spine  2.90075 2.7961 7.1333
Spine1  15.4241 5.42491 -6.97087
HEad  -22.066 -1.20438 -3.93338
LeftShoulder1  9.41685 -14.578 -45.3996
LeftArm  -8.28155 14.3751 -29.0168
LeftForeArm  24.7718 -20.8166 -3.66109
LeftHand  -0.244104 0.0205437 5.32207
RightShoulder  7.09637 12.2043 39.08
RightArm  -0.492066 18.1363 31.7449
RightForeArm  -6.59296 63.2827 24.0343
RightHand  -2.38521 6.16481 -23.9288
LeftUpLeg  1.41615 3.16362 0.414096
LeftLeg  1.67413 8.6245 -3.05087
LeftFoot  -0.480622 -0.245778 2.61592
LeftToes  1.09107e-011 -5.80176e-011 5.60941e-012
174
root  47.7132 40.6203 2.02216 102.456 89.0892 103.78
RightUpLeg  -1.38833 -8.86294 -7.41975
RightLeg  5.27463 2.33607 3.32843
RightFoot  0.233144 -0.00408587 0.0326457
RightToes  -2.9104e-010 0 -3.6325e-017
Spine  3.22884 2.67339 6.88636
Spine1  15.1889 5.18739 -6.65979
HEad  -21.8943 -0.192604 -4.16213
LeftShoulder1  9.35348 -14.4531 -45.4082
LeftArm  -8.31021 14.9194 -29.2381
LeftForeArm  24.3338 -19.7537 -3.78636
LeftHand  -0.244104 0.0205437 5.32207
RightShoulder  7.04895 12.109 39.0539
RightArm  -1.94914 14.3018 31.7838
RightForeArm  1.83411 65.6874 26.2346
RightHand  -2.57692 6.76763 -24.5495
LeftUpLeg  1.29257 3.13531 0.248336
LeftLeg  1.85979 8.86863 -3.08141
LeftFoot  -0.416868 -0.279283 2.9467
LeftToes  1.09107e-011 -5.80176e-011 5.60941e-012
175
root  47.6164 40.6131 1.89407 88.9738 89.1112 90.4518
RightUpLeg  -1.47717 -8.95957 -7.61775
RightLeg  5.39163 2.68002 3.33994
RightFoot  0.442562 -0.0154118 0.182013
RightToes  -2.9104e-010 0 -3.6325e-017
Spine  3.40746 2.51151 6.31957
Spine1  15.1022 4.82179 -6.08911
HEad  -21.7385 1.66518 -4.87325
LeftShoulder1  9.28929 -14.3028 -45.4798
LeftArm  -8.49609 15.4042 -29.358
LeftForeArm  24.3168 -18.6949 -3.93388
LeftHand  -0.244104 0.0205437 5.32207
RightShoulder  7.02958 12.0262 39.165
RightArm  -2.96254 10.28 31.686
RightForeArm  9.37269 67.1655 27.4984
RightHand  -2.79287 7.47151 -25.134
LeftUpLeg  1.28135 3.135 0.0705687
LeftLeg  1.92532 9.09486 -3.16088
LeftFoot  -0.365223 -0.314879 3.29971
LeftToes  1.09107e-011 -5.80176e-011 5.60941e-012
176
root  47.5069 40.6013 1.74391 68.8169 89.045 70.4183
RightUpLeg  -1.59466 -8.97629 -7.7887
RightLeg  5.39243 3.13915 3.26953
RightFoot  0.702782 -0.030461 0.333824
RightToes  -2.9104e-010 0 -3.6325e-017
Spine  3.44665 2.34305 5.76752
Spine1  15.1184 4.47058 -5.60013
HEad  -21.6137 4.32026 -6.05688
LeftShoulder1  9.26398 -14.2052 -45.6105
LeftArm  -8.90473 15.7713 -29.3686
LeftForeArm  24.6808 -17.7235 -4.06262
LeftHand  -0.244104 0.0205437 5.32207
RightShoulder  6.99546 11.8802 39.3638
RightArm  -3.19821 6.31411 31.528
RightForeArm  13.8078 67.1604 26.8597
RightHand  -2.94035 8.01414 -25.383
LeftUpLeg  1.21007 3.10383 -0.158648
LeftLeg  2.0228 9.50677 -3.20591
LeftFoot  -0.331195 -0.351218 3.66406
LeftToes  1.09107e-011 -5.80176e-011 5.60941e-012
177
root  47.3571 40.5811 1.57663 45.313 88.7793 46.9668
RightUpLeg  -1.96681 -8.92109 -7.90706
RightLeg  5.48259 3.53403 3.14239
RightFoot  0.915262 -0.0677692 0.689009
RightToes  -2.9104e-010 0 -3.6325e-017
Spine  3.51556 2.16011 5.32002
Spine1  15.1056 4.16558 -5.30415
HEad  -21.5069 7.52496 -7.37465
LeftShoulder1  9.24095 -14.1279 -45.6995
LeftArm  -9.43508 15.8931 -29.3564
LeftForeArm  25.1793 -16.7591 -4.18241
LeftHand  -0.244104 0.0205437 5.32207
RightShoulder  6.93484 11.6939 39.5153
RightArm  -2.42774 2.91864 31.4751
RightForeArm  13.3959 64.8329 23.6642
RightHand  -2.94702 8.11518 -25.2602
LeftUpLeg  0.950615 3.17217 -0.324869
LeftLeg  2.24346 10.0189 -3.3486
LeftFoot  -0.308508 -0.383724 3.99123
LeftToes  1.09107e-011 -5.80176e-011 5.60941e-012
178
root  47.1575 40.5576 1.4112 27.169 88.3105 28.8703
RightUpLeg  -2.54197 -8.8559 -7.92797
RightLeg  5.75146 3.96998 3.0652
RightFoot  1.18799 -0.109102 1.06747
RightToes  -2.9104e-010 0 -3.6325e-017
Spine  3.89944 1.94379 4.74709
Spine1  14.8806 3.79014 -4.89357
HEad  -21.5199 11.1502 -8.59452
LeftShoulder1  9.18081 -13.9964 -45.7449
LeftArm  -9.90013 15.7217 -29.3724
LeftForeArm  25.672 -15.7467 -4.32324
LeftHand  -0.244104 0.0205437 5.32207
RightShoulder  6.89455 11.5746 39.6051
RightArm  -1.01478 0.38733 31.5798
RightForeArm  9.47002 59.8105 18.9405
RightHand  -2.65388 7.23913 -24.3428
LeftUpLeg  0.592601 3.51917 -0.245903
LeftLeg  2.51966 10.3467 -3.74764
LeftFoot  -0.24994 -0.414973 4.28763
LeftToes  1.09107e-011 -5.80176e-011 5.60941e-012
179
root  46.9061 40.5379 1.26084 13.8103 87.7089 15.5725
RightUpLeg  -3.16169 -8.70571 -7.75255
RightLeg  5.95627 4.61275 3.03066
RightFoot  1.77136 -0.13102 1.2446
RightToes  -2.9104e-010 0 -3.6325e-017
Spine  4.66657 1.73775 4.02785
Spine1  14.4623 3.35443 -4.26143
HEad  -21.971 14.9082 -9.77121
LeftShoulder1  9.11333 -13.8578 -45.7719
LeftArm  -10.1795 15.3225 -29.4454
LeftForeArm  26.0292 -14.9751 -4.44594
LeftHand  -0.244104 0.0205437 5.32207
RightShoulder  6.88269 11.5356 39.6429
RightArm  0.520414 -1.27138 31.9431
RightForeArm  4.76969 52.2729 14.2505
RightHand  -2.00515 5.13248 -22.102
LeftUpLeg  0.147838 4.07079 0.0753213
LeftLeg  2.84418 10.5535 -4.25273
LeftFoot  -0.0935037 -0.454311 4.61665
LeftToes  1.09107e-011 -5.80176e-011 5.60941e-012
180
root  46.6027 40.5211 1.12619 3.53748 86.944 5.24443
RightUpLeg  -3.8908 -8.38033 -7.3506
RightLeg  5.88358 4.8748 2.94911
RightFoot  2.41826 -0.178663 1.61346
RightToes  -2.9104e-010 0 -3.6325e-017
Spine  5.5047 1.59874 3.45787
Spine1  14.1046 3.02621 -3.74434
HEad  -23.0499 18.2893 -11.0575
LeftShoulder1  9.09006 -13.819 -45.7567
LeftArm  -10.1845 14.8395 -29.535
LeftForeArm  26.0774 -15.0099 -4.44536
LeftHand  -0.244104 0.0205437 5.32207
RightShoulder  6.87008 11.5027 39.6587
RightArm  2.51306 -1.80677 32.7197
RightForeArm  0.492338 42.0034 10.0009
RightHand  -1.34519 2.89589 -18.9458
LeftUpLeg  -0.585818 4.57709 0.465178
LeftLeg  3.31994 10.9751 -4.55437
LeftFoot  0.151663 -0.503854 4.99442
LeftToes  1.09107e-011 -5.80176e-011 5.60941e-012
181
root  46.2618 40.5025 1.00994 -3.39915 86.0132 -1.90033
RightUpLeg  -4.79333 -8.10955 -6.84598
RightLeg  5.88352 3.69977 2.87736
RightFoot  2.31082 -0.300524 2.65065
RightToes  -2.9104e-010 0 -3.6325e-017
Spine  6.13698 1.51644 3.19217
Spine1  13.9661 2.87741 -3.58214
HEad  -24.3805 21.0401 -12.4481
LeftShoulder1  9.11295 -13.8807 -45.7076
LeftArm  -9.79425 14.4155 -29.4923
LeftForeArm  25.8164 -16.1851 -4.2571
LeftHand  -0.244104 0.0205437 5.32207
RightShoulder  6.91876 11.5251 39.9009
RightArm  4.7858 -0.909823 33.7033
RightForeArm  -2.08375 28.4559 6.83499
RightHand  -0.98065 1.88381 -15.8057
LeftUpLeg  -1.61421 4.94797 0.834523
LeftLeg  3.92907 11.6336 -4.59419
LeftFoot  0.403451 -0.554379 5.36243
LeftToes  1.09107e-011 -5.80176e-011 5.60941e-012
182
root  45.909 40.4827 0.92523 -7.47192 85.0665 -6.0981
RightUpLeg  -5.60987 -8.52808 -6.35119
RightLeg  6.8807 1.25911 2.83607
RightFoot  0.93289 -0.409541 3.87237
RightToes  -2.9104e-010 0 -3.6325e-017
Spine  6.65323 1.49446 3.09608
Spine1  13.9555 2.86067 -3.59504
HEad  -25.3212 23.2497 -13.8311
LeftShoulder1  9.1671 -13.9789 -45.7215
LeftArm  -9.03131 14.0202 -29.2075
LeftForeArm  25.4653 -18.1983 -3.94476
LeftHand  -0.244104 0.0205437 5.32207
RightShoulder  7.12533 11.7512 40.5347
RightArm  0.909882 0.582921 34.1798
RightForeArm  3.00191 12.9228 6.60512
RightHand  -0.691538 0.877285 -12.8118
LeftUpLeg  -2.53449 5.27583 1.21709
LeftLeg  4.47818 12.2233 -4.56136
LeftFoot  0.631097 -0.597852 5.66021
LeftToes  1.09107e-011 -5.80176e-011 5.60941e-012
